<?xml version="1.0" standalone="no"?>
<!DOCTYPE svg PUBLIC "-//W3C//DTD SVG 20010904//EN"
 "http://www.w3.org/TR/2001/REC-SVG-20010904/DTD/svg10.dtd">
<svg version="1.0" xmlns="http://www.w3.org/2000/svg"
 width="66.000000pt" height="61.000000pt" viewBox="0 0 66.000000 61.000000"
 preserveAspectRatio="xMidYMid meet">

<g transform="translate(0.000000,61.000000) scale(0.100000,-0.100000)"
fill="#000000" stroke="none">
<path d="M134 531 c-22 -10 -51 -31 -63 -47 -20 -25 -21 -35 -16 -98 7 -75 49
-181 88 -223 40 -44 124 -18 148 46 10 25 10 25 37 -24 19 -35 34 -51 51 -53
43 -6 88 8 120 38 17 17 35 30 39 30 5 0 17 18 27 41 16 35 17 48 7 95 -15 74
-43 111 -90 121 -52 10 -73 5 -104 -25 -24 -22 -28 -23 -28 -8 0 40 -34 89
-74 107 -52 23 -90 23 -142 0z"/>
</g>
</svg>
